<?xml version="1.0" standalone="no"?>
<!DOCTYPE svg PUBLIC "-//W3C//DTD SVG 20010904//EN"
 "http://www.w3.org/TR/2001/REC-SVG-20010904/DTD/svg10.dtd">
<svg version="1.0" xmlns="http://www.w3.org/2000/svg"
 width="600.000000pt" height="600.000000pt" viewBox="0 0 600.000000 600.000000"
 preserveAspectRatio="xMidYMid meet">
<metadata>
Created by potrace 1.11, written by Peter Selinger 2001-2013
</metadata>
<g transform="translate(0.000000,600.000000) scale(0.100000,-0.100000)"
fill="#000000" stroke="none">
<path d="M2825 5021 c-158 -22 -236 -40 -380 -87 -642 -210 -1149 -749 -1324
-1406 -58 -216 -80 -457 -62 -660 44 -510 239 -936 586 -1284 181 -181 343
-296 570 -405 286 -137 546 -194 875 -194 448 2 818 123 1193 393 354 254 646
678 757 1099 88 334 93 690 14 1013 -125 510 -454 960 -907 1244 -227 142
-489 239 -762 282 -157 24 -405 27 -560 5z m-312 -207 c10 -19 38 -57 63 -84
37 -39 44 -53 38 -74 -3 -14 1 -49 9 -78 9 -29 18 -71 20 -93 3 -22 8 -49 12
-60 14 -37 -21 5 -58 70 -21 38 -39 58 -48 56 -34 -11 -74 -6 -71 8 15 69 15
72 -6 77 -14 4 -21 16 -25 42 -4 31 0 40 24 60 27 22 28 23 13 64 -17 49 -17
48 -1 48 7 0 21 -16 30 -36z m-187 -86 c-5 -56 9 -120 36 -155 18 -23 38 -2
39 41 0 31 2 36 9 21 4 -11 6 -48 3 -82 -4 -39 -2 -68 5 -76 21 -25 41 -83 33
-95 -11 -19 -40 -4 -34 18 5 21 -13 60 -28 60 -5 0 -17 -16 -25 -36 -22 -53
-39 -38 -42 39 -3 70 -11 80 -44 50 -10 -9 -20 -14 -22 -12 -10 10 8 61 31 85
20 22 24 33 18 58 -14 71 -16 102 -6 129 18 48 34 22 27 -45z m1365 60 c4 -38
-6 -57 -48 -95 -46 -42 -53 -71 -10 -43 12 8 49 17 82 20 58 5 61 6 80 45 43
84 46 85 39 16 -8 -71 -10 -69 64 -46 27 9 29 -5 3 -36 -13 -16 -33 -24 -67
-28 -55 -7 -70 -34 -21 -39 24 -3 26 -6 21 -30 -8 -33 -29 -81 -46 -104 -15
-21 5 -65 59 -128 40 -46 35 -48 -44 -19 -72 27 -94 45 -87 73 4 19 -1 22 -54
32 -67 13 -112 38 -112 63 0 9 10 32 22 51 l23 35 3 -32 c2 -20 12 -39 25 -48
48 -34 64 -6 23 42 -21 25 -22 31 -10 48 30 41 8 47 -44 13 -18 -13 -42 -40
-53 -60 -21 -42 -30 -46 -49 -23 -7 8 -25 15 -41 15 -24 0 -29 4 -29 25 0 19
5 25 21 25 35 0 84 29 102 59 20 34 22 82 5 99 -9 9 -4 10 20 3 34 -10 39 -7
66 47 16 32 55 45 57 20z m-422 -403 c479 -70 890 -387 1080 -835 130 -304
141 -673 30 -987 -122 -346 -377 -631 -704 -788 -174 -83 -288 -115 -494 -135
-420 -42 -879 149 -1159 482 -292 347 -393 771 -292 1223 31 142 123 339 219
474 299 419 812 639 1320 566z m-1713 -293 c11 -9 38 -38 58 -64 21 -27 47
-48 57 -48 9 0 28 15 40 33 28 41 48 57 71 57 15 0 17 -6 12 -37 -5 -36 -3
-40 40 -76 57 -47 59 -73 10 -145 -39 -55 -51 -59 -99 -26 -11 8 -39 14 -62
14 -50 0 -55 15 -26 75 9 19 15 36 12 37 -2 2 -34 32 -71 66 -60 56 -71 63
-97 57 -24 -5 -32 -2 -41 15 -25 47 50 80 96 42z m3152 -98 c3 -28 -4 -38 -55
-79 -32 -26 -58 -53 -58 -59 0 -6 12 -12 27 -14 26 -3 78 -52 78 -73 0 -25
-34 -17 -89 22 l-60 43 -53 -27 c-79 -40 -142 -33 -192 22 -29 32 -14 51 39
49 25 0 48 2 51 5 4 3 -1 22 -10 42 -22 46 -17 69 15 73 20 2 32 -5 53 -32 15
-20 36 -36 46 -36 10 0 47 22 82 50 48 37 70 49 93 47 26 -2 30 -6 33 -33z
m-198 -352 c0 -51 -19 -78 -42 -60 -12 9 -17 31 -18 78 -3 89 -3 89 30 52 22
-24 30 -42 30 -70z m-3132 -509 c4 -25 38 -53 95 -76 33 -14 37 -20 37 -51 0
-39 11 -50 39 -41 15 4 22 22 31 76 11 63 14 70 33 67 42 -6 28 -117 -19 -165
-21 -21 -31 -24 -63 -18 -33 5 -41 3 -69 -26 -28 -29 -34 -31 -76 -25 -46 7
-64 26 -26 26 29 0 36 27 14 51 -14 16 -26 19 -53 14 -31 -6 -38 -2 -95 53
-34 33 -74 63 -90 66 -47 11 -15 29 51 28 44 -1 69 5 103 23 54 29 84 29 88
-2z m3406 -35 c36 -33 86 -137 86 -178 0 -53 -13 -67 -47 -54 -16 6 -57 9 -91
6 -58 -4 -75 -13 -52 -27 16 -10 12 -72 -5 -79 -10 -3 -18 1 -21 12 -19 59
-22 62 -68 62 -25 0 -48 4 -51 10 -3 5 -8 31 -12 58 -5 43 -3 50 19 64 14 9
31 30 38 47 19 47 40 40 40 -13 0 -36 5 -48 27 -65 31 -25 67 -36 89 -27 15 6
15 8 -1 26 -10 11 -24 20 -30 20 -7 0 -18 7 -25 15 -11 13 -7 15 23 15 29 0
41 -7 63 -35 24 -33 54 -47 54 -26 0 18 -92 133 -111 138 -21 6 -26 39 -6 46
27 12 57 6 81 -15z m170 3 c10 -16 -5 -39 -34 -51 -46 -19 -60 5 -27 48 11 14
53 16 61 3z m13 -97 c8 -21 -13 -42 -28 -27 -13 13 -5 43 11 43 6 0 13 -7 17
-16z m51 -101 c36 -6 41 -25 16 -61 -24 -34 -41 -27 -68 29 -24 51 -24 51 -2
44 11 -4 36 -9 54 -12z m-2210 -1491 c-1 -4 -36 -56 -77 -115 -66 -95 -77
-107 -104 -107 -22 0 -27 3 -20 13 6 6 38 50 72 96 59 80 61 85 45 102 -16 18
-15 19 35 19 29 0 51 -4 49 -8z m216 -8 c42 -41 26 -115 -35 -168 -66 -56
-166 -69 -189 -25 -15 27 10 37 28 11 19 -29 38 -28 81 5 58 43 66 63 26 63
-31 0 -60 41 -51 74 10 40 34 56 81 56 26 0 50 -6 59 -16z m574 -5 c45 -16 55
-68 15 -83 -22 -9 -41 10 -25 26 37 37 -25 38 -84 1 -24 -16 -44 -31 -44 -34
0 -3 19 -9 42 -15 37 -8 44 -14 52 -43 9 -31 7 -36 -22 -62 -57 -51 -152 -30
-152 32 0 40 49 113 98 146 26 17 56 34 67 36 11 3 20 5 21 6 1 0 15 -4 32
-10z m-249 -26 c-13 -16 -25 -30 -27 -33 -2 -3 -8 3 -13 13 -7 12 -22 17 -49
17 -33 0 -40 -3 -40 -20 0 -13 10 -24 25 -30 49 -19 56 -106 12 -134 -38 -24
-96 -29 -123 -11 -43 28 -25 116 20 99 23 -9 20 -31 -6 -37 -18 -5 -19 -8 -8
-21 26 -32 100 -6 100 35 0 27 -35 59 -65 59 -32 0 -32 8 6 53 l30 37 81 0 81
0 -24 -27z"/>
<path d="M2484 4696 c-9 -24 12 -44 28 -28 10 10 8 16 -5 29 -15 15 -17 15
-23 -1z"/>
<path d="M2507 4633 c-15 -14 -7 -43 12 -43 24 0 33 13 25 34 -6 16 -25 21
-37 9z"/>
<path d="M2345 4520 c-7 -12 2 -30 16 -30 5 0 9 9 9 20 0 21 -15 27 -25 10z"/>
<path d="M3671 4641 c-20 -13 -9 -46 17 -49 16 -3 22 2 22 16 0 25 -22 43 -39
33z"/>
<path d="M3735 4520 c-17 -18 -17 -20 -1 -26 20 -8 52 19 42 35 -10 16 -21 14
-41 -9z"/>
<path d="M2521 3848 c-66 -25 -131 -88 -149 -143 -7 -22 -16 -76 -19 -120 -6
-100 12 -190 67 -327 40 -100 40 -103 25 -140 -24 -60 -20 -172 9 -234 43 -92
142 -154 247 -154 46 0 49 -2 92 -57 25 -32 88 -100 140 -151 l96 -93 40 27
c23 15 41 30 41 33 0 4 -32 34 -71 66 -39 32 -99 90 -134 129 l-63 70 48 45
c67 63 94 126 94 221 1 58 -4 84 -21 116 -54 101 -127 153 -226 161 -76 6
-131 -8 -186 -47 l-42 -31 18 -30 c29 -49 41 -55 66 -32 37 34 67 45 127 46
44 0 65 -5 89 -22 41 -29 71 -89 71 -142 l0 -42 -140 7 -140 7 0 -34 c0 -20 9
-46 21 -61 17 -22 29 -26 68 -26 34 0 56 6 75 21 l27 21 24 -22 c29 -27 22
-41 -36 -71 -149 -75 -302 68 -246 229 15 44 15 44 -19 100 -119 197 -136 423
-43 552 92 127 278 100 526 -77 46 -32 82 -61 80 -64 -1 -4 -36 -33 -77 -66
-41 -33 -104 -88 -140 -122 l-65 -63 53 -24 54 -24 91 78 c51 42 114 95 141
117 l49 39 123 -127 122 -127 66 0 c36 0 66 3 66 6 0 9 -98 129 -141 174 -19
19 -59 56 -89 82 -48 41 -53 49 -40 61 31 30 205 128 283 159 72 28 94 32 178
33 85 0 99 -3 131 -25 58 -39 73 -73 72 -160 -1 -65 -7 -90 -48 -190 -67 -164
-66 -150 -14 -150 44 0 46 1 61 43 51 136 66 289 38 371 -19 55 -72 110 -134
137 -45 20 -67 24 -162 23 -92 -1 -124 -5 -195 -29 -85 -27 -210 -86 -281
-131 l-38 -24 -98 67 c-211 143 -420 196 -562 141z"/>
<path d="M2000 3072 c0 -138 0 -138 28 -164 46 -44 86 -58 159 -58 76 1 125
20 154 60 15 20 20 53 25 158 l7 132 -57 0 -56 0 0 -104 c0 -160 -17 -187
-107 -164 l-43 10 0 134 0 134 -55 0 -55 0 0 -138z"/>
<path d="M3123 3169 c-20 -6 -40 -23 -54 -45 -19 -32 -20 -40 -10 -75 13 -45
53 -75 111 -85 72 -13 106 -57 54 -70 -32 -8 -70 9 -79 35 -7 22 -37 27 -83
15 -23 -7 -24 -22 -1 -70 37 -74 202 -83 271 -14 22 22 28 38 28 70 0 51 -30
84 -91 99 -24 6 -57 15 -74 19 -32 8 -46 39 -23 53 24 15 56 9 86 -16 20 -17
42 -25 67 -25 33 0 36 2 30 23 -21 71 -135 114 -232 86z"/>
<path d="M3410 3115 l0 -45 60 0 59 0 3 -132 3 -133 48 -3 47 -3 0 135 0 136
65 0 65 0 0 45 0 45 -175 0 -175 0 0 -45z"/>
<path d="M2651 3123 c-17 -16 -31 -37 -33 -48 -3 -18 3 -20 81 -23 109 -4 116
-1 96 37 -33 65 -95 79 -144 34z"/>
<path d="M3872 3129 c-52 -26 -78 -62 -93 -127 -33 -141 84 -255 232 -225 32
6 129 90 129 111 0 5 -18 12 -41 15 -32 4 -48 0 -76 -19 -20 -13 -47 -24 -60
-24 -88 0 -135 109 -74 171 36 36 101 40 141 9 23 -18 110 -29 110 -14 0 22
-48 78 -84 99 -55 32 -124 33 -184 4z"/>
<path d="M2421 2811 c-7 -12 -27 -61 -46 -110 -100 -260 -84 -440 47 -508 180
-94 477 -12 818 225 109 77 350 292 350 313 0 5 -33 9 -74 9 l-74 0 -73 -65
c-270 -243 -525 -407 -699 -451 -44 -11 -91 -15 -147 -12 -94 5 -126 21 -156
79 -38 71 -4 231 86 402 l41 77 -31 32 c-31 30 -31 30 -42 9z"/>
<path d="M3803 2718 c3 -7 22 -50 42 -95 64 -146 83 -298 46 -379 -36 -80
-155 -107 -283 -63 -86 29 -190 82 -283 146 l-80 55 -32 -18 c-59 -31 -59 -39
-6 -78 157 -116 393 -191 520 -167 154 30 221 106 231 267 5 88 -7 177 -39
279 l-20 65 -50 0 c-37 0 -50 -3 -46 -12z"/>
<path d="M1721 3904 c-36 -46 -22 -84 30 -84 45 0 59 10 59 41 0 31 -30 69
-54 69 -8 0 -24 -12 -35 -26z"/>
<path d="M1278 3119 c-27 -15 -22 -37 15 -59 36 -23 80 -23 85 1 4 20 -42 69
-65 69 -10 0 -26 -5 -35 -11z"/>
<path d="M1397 3033 c-14 -13 -6 -25 13 -20 11 3 23 1 26 -4 3 -5 10 -7 15 -3
5 3 7 10 3 15 -3 5 -9 7 -14 4 -5 -3 -11 -1 -15 5 -7 12 -19 13 -28 3z"/>
<path d="M4560 2941 c0 -33 11 -51 31 -51 21 0 25 21 9 51 -14 25 -40 25 -40
0z"/>
<path d="M2918 1365 c-15 -33 2 -55 27 -35 14 11 20 11 37 1 27 -17 41 2 25
36 -15 34 -73 33 -89 -2z"/>
<path d="M3486 1255 c-5 -13 -9 -13 -26 -3 -17 11 -22 11 -29 -1 -16 -25 4
-56 36 -59 37 -4 73 31 57 55 -15 23 -30 27 -38 8z"/>
</g>
</svg>
